<svg version="1.1" xmlns="http://www.w3.org/2000/svg" xmlns:xlink="http://www.w3.org/1999/xlink" width="384px" height="512px" viewBox="0,0,192,256"><g fill="#ffffff" fill-rule="nonzero" stroke="none" stroke-width="1" stroke-linecap="butt" stroke-linejoin="miter" stroke-miterlimit="10" stroke-dasharray="" stroke-dashoffset="0" font-family="none" font-weight="none" font-size="none" text-anchor="none" style="mix-blend-mode: normal"><g transform="scale(0.5,0.5)"><path d="M64,0c-35.3,0 -64,28.7 -64,64v384c0,35.3 28.7,64 64,64h256c35.3,0 64,-28.7 64,-64v-288h-128c-17.7,0 -32,-14.3 -32,-32v-128zM256,0v128h128zM80,64h64c8.8,0 16,7.2 16,16c0,8.8 -7.2,16 -16,16h-64c-8.8,0 -16,-7.2 -16,-16c0,-8.8 7.2,-16 16,-16zM80,128h64c8.8,0 16,7.2 16,16c0,8.8 -7.2,16 -16,16h-64c-8.8,0 -16,-7.2 -16,-16c0,-8.8 7.2,-16 16,-16zM96,224h192c17.7,0 32,14.3 32,32v64c0,17.7 -14.3,32 -32,32h-192c-17.7,0 -32,-14.3 -32,-32v-64c0,-17.7 14.3,-32 32,-32zM96,256v64h192v-64zM240,416h64c8.8,0 16,7.2 16,16c0,8.8 -7.2,16 -16,16h-64c-8.8,0 -16,-7.2 -16,-16c0,-8.8 7.2,-16 16,-16z"></path></g></g></svg>