<svg version="1.1" xmlns="http://www.w3.org/2000/svg" xmlns:xlink="http://www.w3.org/1999/xlink" width="512px" height="512px" viewBox="0,0,256,256"><g fill="#ffffff" fill-rule="nonzero" stroke="none" stroke-width="1" stroke-linecap="butt" stroke-linejoin="miter" stroke-miterlimit="10" stroke-dasharray="" stroke-dashoffset="0" font-family="none" font-weight="none" font-size="none" text-anchor="none" style="mix-blend-mode: normal"><g transform="scale(0.5,0.5)"><path d="M75,75l-34,-34c-15.1,-15.1 -41,-4.4 -41,16.9v110.1c0,13.3 10.7,24 24,24h110.1c21.4,0 32.1,-25.9 17,-41l-30.8,-30.8c34.7,-34.7 82.7,-56.2 135.7,-56.2c106,0 192,86 192,192c0,106 -86,192 -192,192c-40.8,0 -78.6,-12.7 -109.7,-34.4c-14.5,-10.1 -34.4,-6.6 -44.6,7.9c-10.2,14.5 -6.6,34.4 7.9,44.6c41.6,28.9 92.1,45.9 146.4,45.9c141.4,0 256,-114.6 256,-256c0,-141.4 -114.6,-256 -256,-256c-70.7,0 -134.7,28.7 -181,75zM256,128c-13.3,0 -24,10.7 -24,24v104c0,6.4 2.5,12.5 7,17l72,72c9.4,9.4 24.6,9.4 33.9,0c9.3,-9.4 9.4,-24.6 0,-33.9l-65,-65v-94.1c0,-13.3 -10.7,-24 -24,-24z"></path></g></g></svg>