<svg version="1.1" xmlns="http://www.w3.org/2000/svg" xmlns:xlink="http://www.w3.org/1999/xlink" width="640px" height="512px" viewBox="0,0,256,204.79999"><g fill="#ffffff" fill-rule="nonzero" stroke="none" stroke-width="1" stroke-linecap="butt" stroke-linejoin="miter" stroke-miterlimit="10" stroke-dasharray="" stroke-dashoffset="0" font-family="none" font-weight="none" font-size="none" text-anchor="none" style="mix-blend-mode: normal"><g transform="translate(0,-0.00001) scale(0.4,0.4)"><path d="M96,128c0,-70.69245 57.30755,-128 128,-128c70.69245,0 128,57.30755 128,128c0,70.69245 -57.30755,128 -128,128c-70.69245,0 -128,-57.30755 -128,-128zM0,482.3c0,-98.5 79.8,-178.3 178.3,-178.3h91.4c98.5,0 178.3,79.8 178.3,178.3c0,16.4 -13.3,29.7 -29.7,29.7h-388.6c-16.4,0 -29.7,-13.3 -29.7,-29.7zM504,312v-64h-64c-13.3,0 -24,-10.7 -24,-24c0,-13.3 10.7,-24 24,-24h64v-64c0,-13.3 10.7,-24 24,-24c13.3,0 24,10.7 24,24v64h64c13.3,0 24,10.7 24,24c0,13.3 -10.7,24 -24,24h-64v64c0,13.3 -10.7,24 -24,24c-13.3,0 -24,-10.7 -24,-24z"></path></g></g></svg>