<svg version="1.1" xmlns="http://www.w3.org/2000/svg" xmlns:xlink="http://www.w3.org/1999/xlink" width="512px" height="512px" viewBox="0,0,256,256"><g fill="#ffffff" fill-rule="nonzero" stroke="none" stroke-width="1" stroke-linecap="butt" stroke-linejoin="miter" stroke-miterlimit="10" stroke-dasharray="" stroke-dashoffset="0" font-family="none" font-weight="none" font-size="none" text-anchor="none" style="mix-blend-mode: normal"><g transform="scale(0.5,0.5)"><path d="M377.9,105.9l122.8,122.8c7.2,7.2 11.3,17.1 11.3,27.3c0,10.2 -4.1,20.1 -11.3,27.3l-122.8,122.8c-6.4,6.4 -15,9.9 -24,9.9c-18.7,0 -33.9,-15.2 -33.9,-33.9v-62.1h-128c-17.7,0 -32,-14.3 -32,-32v-64c0,-17.7 14.3,-32 32,-32h128v-62.1c0,-18.7 15.2,-33.9 33.9,-33.9c9,0 17.6,3.6 24,9.9zM160,96h-64c-17.7,0 -32,14.3 -32,32v256c0,17.7 14.3,32 32,32h64c17.7,0 32,14.3 32,32c0,17.7 -14.3,32 -32,32h-64c-53,0 -96,-43 -96,-96v-256c0,-53 43,-96 96,-96h64c17.7,0 32,14.3 32,32c0,17.7 -14.3,32 -32,32z"></path></g></g></svg>